<?xml version="1.0" encoding="UTF-8"?>
<svg id="Final" xmlns="http://www.w3.org/2000/svg" xmlns:xlink="http://www.w3.org/1999/xlink" viewBox="0 0 247.29 124.28">
  <defs>
    <style>
      .cls-1 {
        fill: #23c9a9;
      }

      .cls-2 {
        stroke: #23c9a9;
      }

      .cls-2, .cls-3, .cls-4, .cls-5, .cls-6, .cls-7 {
        fill: none;
        stroke-linecap: round;
        stroke-linejoin: round;
        stroke-width: 7px;
      }

      .cls-3 {
        stroke: #108773;
      }

      .cls-4 {
        stroke: url(#linear-gradient-3);
      }

      .cls-5 {
        stroke: url(#linear-gradient-2);
      }

      .cls-6 {
        stroke: url(#linear-gradient);
      }

      .cls-7 {
        stroke: #80ddd6;
      }
    </style>
    <linearGradient id="linear-gradient" x1="64.35" y1="42.25" x2="84.23" y2="42.25" gradientUnits="userSpaceOnUse">
      <stop offset="0" stop-color="#ff7900"/>
      <stop offset="1" stop-color="red"/>
      <stop offset="1" stop-color="#000"/>
    </linearGradient>
    <linearGradient id="linear-gradient-2" x1="94.82" y1="42.82" x2="113.89" y2="42.82" gradientUnits="userSpaceOnUse">
      <stop offset="0" stop-color="#23c9a9"/>
      <stop offset="1" stop-color="#80ddd6"/>
    </linearGradient>
    <linearGradient id="linear-gradient-3" x1="58.62" y1="68.81" x2="79.68" y2="68.81" gradientUnits="userSpaceOnUse">
      <stop offset="0" stop-color="#108773"/>
      <stop offset=".97" stop-color="#23c9a9"/>
    </linearGradient>
  </defs>
  <g>
    <path class="cls-1" d="M126.01,64.16v-19.68h3.81v19.68h-3.81ZM137.91,64.16l-8.54-10.28,8.32-9.41h4.76l-9.24,10.25v-1.79l9.52,11.23h-4.82Z"/>
    <path class="cls-1" d="M150.23,64.47c-1.36,0-2.59-.31-3.68-.94-1.09-.62-1.96-1.47-2.59-2.55s-.95-2.28-.95-3.63.32-2.52.95-3.57c.63-1.05,1.5-1.89,2.59-2.52s2.32-.94,3.68-.94,2.62.31,3.71.92c1.09.62,1.96,1.46,2.6,2.52.64,1.06.97,2.26.97,3.58s-.32,2.53-.95,3.61c-.63,1.08-1.5,1.94-2.6,2.56-1.1.63-2.34.94-3.72.94ZM150.23,61.02c.69,0,1.3-.16,1.83-.48.53-.32.94-.75,1.23-1.29.29-.54.43-1.17.43-1.88s-.15-1.33-.46-1.88c-.31-.54-.72-.97-1.23-1.27s-1.12-.46-1.81-.46-1.27.15-1.79.46c-.52.31-.93.73-1.22,1.27-.29.54-.43,1.17-.43,1.88s.14,1.33.43,1.88c.29.54.7.97,1.22,1.29.52.32,1.12.48,1.79.48Z"/>
    <path class="cls-1" d="M158.6,53.86v-3.22h10v3.22h-10ZM161.76,64.16v-19.15h3.67v19.15h-3.67Z"/>
    <path class="cls-1" d="M176.24,64.44c-1.23,0-2.34-.31-3.32-.92s-1.75-1.46-2.31-2.52c-.56-1.06-.84-2.26-.84-3.58s.28-2.55.84-3.61c.56-1.06,1.33-1.9,2.31-2.52s2.1-.92,3.35-.92c.95,0,1.81.2,2.58.59s1.38.93,1.85,1.62.72,1.48.76,2.38v4.9c-.04.88-.29,1.67-.74,2.37-.46.7-1.07,1.25-1.85,1.64-.78.39-1.65.59-2.62.59ZM176.94,61.05c1.03,0,1.86-.35,2.49-1.04s.95-1.56.95-2.6c0-.71-.15-1.34-.45-1.9-.3-.56-.7-.99-1.2-1.3-.5-.31-1.1-.46-1.79-.46s-1.26.16-1.78.48-.92.75-1.21,1.29c-.29.54-.43,1.17-.43,1.88s.14,1.36.43,1.9c.29.54.7.97,1.22,1.29.52.32,1.11.48,1.76.48ZM180.16,64.16v-3.64l.62-3.3-.62-3.28v-3.3h3.7v13.52h-3.7Z"/>
  </g>
  <polyline class="cls-7" points="110.39 49.41 126.93 19.86 137.59 31.98"/>
  <circle class="cls-6" cx="74.29" cy="42.25" r="6.44"/>
  <line class="cls-5" x1="98.32" y1="36.23" x2="110.39" y2="49.41"/>
  <polyline class="cls-2" points="71.39 58 81.84 67.39 102.31 28.71"/>
  <g>
    <path class="cls-4" d="M76.18,79.62h-14.06c3.02-7.05,6.24-14.57,9.26-21.61"/>
    <line class="cls-3" x1="66.83" y1="87.45" x2="56.42" y2="70.13"/>
  </g>
  <g>
    <path class="cls-1" d="M93.05,74.67v-3.39h16.38v3.39h-16.38ZM99.32,90.97v-19.26h3.84v19.26h-3.84Z"/>
    <path class="cls-1" d="M109.18,90.97v-13.52h3.67v13.52h-3.67ZM112.85,83.52l-1.43-.98c.17-1.66.65-2.97,1.46-3.93.8-.96,1.96-1.44,3.47-1.44.67,0,1.26.11,1.78.32.51.21.98.57,1.41,1.05l-2.3,2.66c-.21-.24-.45-.42-.74-.52-.29-.1-.62-.15-.99-.15-.78,0-1.42.24-1.92.73-.5.49-.74,1.24-.74,2.27Z"/>
    <path class="cls-1" d="M126.37,91.25c-1.23,0-2.34-.31-3.32-.92-.98-.62-1.75-1.46-2.31-2.52-.56-1.06-.84-2.26-.84-3.58s.28-2.55.84-3.61c.56-1.06,1.33-1.9,2.31-2.52.98-.62,2.1-.92,3.35-.92.95,0,1.81.2,2.58.59.76.39,1.38.93,1.85,1.62.47.69.72,1.48.76,2.38v4.9c-.04.88-.29,1.67-.74,2.37s-1.07,1.25-1.85,1.64c-.78.39-1.65.59-2.62.59ZM127.07,87.86c1.03,0,1.86-.34,2.49-1.04.63-.69.95-1.56.95-2.6,0-.71-.15-1.34-.45-1.9-.3-.56-.7-.99-1.2-1.3s-1.1-.46-1.79-.46-1.26.16-1.78.48c-.51.32-.92.75-1.2,1.29-.29.54-.43,1.17-.43,1.88s.14,1.36.43,1.9c.29.54.7.97,1.22,1.29.52.32,1.11.48,1.76.48ZM130.29,90.97v-3.64l.62-3.3-.62-3.28v-3.3h3.7v13.52h-3.7Z"/>
    <path class="cls-1" d="M141.85,90.97l-5.96-13.52h4.03l4.28,11.14h-1.99l4.28-11.14h3.92l-5.94,13.52h-2.63Z"/>
    <path class="cls-1" d="M158.46,91.27c-1.42,0-2.68-.31-3.79-.92s-1.98-1.46-2.62-2.52c-.63-1.06-.95-2.28-.95-3.64s.31-2.55.94-3.61c.62-1.06,1.48-1.9,2.56-2.52,1.08-.62,2.3-.92,3.64-.92,1.27,0,2.41.29,3.42.87,1.01.58,1.79,1.38,2.35,2.41.56,1.03.84,2.19.84,3.5,0,.24,0,.49-.03.74-.02.25-.07.53-.14.83l-11.4.03v-2.74l9.69-.03-1.51,1.15c-.02-.8-.16-1.47-.42-2.02-.26-.54-.63-.95-1.09-1.23-.47-.28-1.05-.42-1.74-.42-.73,0-1.36.16-1.9.48-.54.32-.96.77-1.25,1.36-.29.59-.43,1.28-.43,2.09s.15,1.54.46,2.14c.31.61.75,1.07,1.33,1.39.58.32,1.25.48,2.02.48.69,0,1.32-.11,1.88-.34.56-.22,1.04-.58,1.46-1.06l2.18,2.18c-.69.78-1.5,1.37-2.44,1.76-.93.39-1.95.59-3.05.59Z"/>
    <path class="cls-1" d="M167.42,90.97v-20.24h3.67v20.24h-3.67Z"/>
    <path class="cls-1" d="M179.29,91.27c-.78,0-1.54-.1-2.28-.29-.74-.2-1.41-.48-2.03-.87-.62-.38-1.15-.84-1.6-1.36l2.21-2.21c.45.54.98.94,1.6,1.2s1.29.39,2.02.39c.6,0,1.05-.09,1.37-.27s.48-.42.48-.74c0-.37-.17-.66-.5-.85-.34-.2-.76-.37-1.27-.52-.51-.15-1.06-.31-1.64-.48-.58-.17-1.12-.4-1.64-.69-.51-.29-.94-.7-1.27-1.22s-.5-1.19-.5-2.02.21-1.61.64-2.25c.43-.64,1.04-1.14,1.82-1.48s1.71-.52,2.77-.52c1.12,0,2.13.19,3.04.57.91.38,1.66.97,2.25,1.75l-2.21,2.24c-.41-.49-.87-.84-1.39-1.08-.51-.23-1.06-.35-1.64-.35s-.98.08-1.26.25c-.28.17-.42.4-.42.7,0,.34.16.59.48.77.32.18.74.34,1.26.49s1.07.31,1.64.49c.57.18,1.11.42,1.62.74.51.32.93.74,1.26,1.26.33.52.49,1.19.49,2.02,0,1.33-.48,2.38-1.43,3.15s-2.24,1.16-3.86,1.16Z"/>
  </g>
</svg>