<svg viewBox="0 0 24 24" xmlns="http://www.w3.org/2000/svg" aria-hidden="true" focusable="false">
  <path d="M12 2.5C14.7124 2.5 15.0432 2.51131 16.1016 2.56152L16.1025 2.5625C17.1157 2.6072 17.7884 2.76935 18.3701 2.99414C18.9654 3.22445 19.4642 3.53065 19.9668 4.0332L19.9678 4.03418C20.4721 4.53493 20.7738 5.03112 20.9961 5.63086L20.999 5.63867C21.1952 6.14324 21.3441 6.72381 21.4082 7.54004L21.4297 7.90527C21.4761 8.96044 21.4883 9.29208 21.4883 12.0039C21.4883 14.7157 21.4761 15.0474 21.4297 16.1025C21.385 17.1157 21.2228 17.7884 20.998 18.3701C20.7677 18.9654 20.4615 19.4642 19.959 19.9668C19.4564 20.4693 18.9576 20.7756 18.3623 21.0059L18.3613 21.0068C17.7847 21.231 17.1083 21.3928 16.0947 21.4375C15.0396 21.4839 14.7079 21.4961 11.9961 21.4961C9.28385 21.4961 8.95203 21.4839 7.89648 21.4375H7.89746C6.88434 21.3928 6.21155 21.2307 5.62988 21.0059C5.03462 20.7756 4.53576 20.4693 4.0332 19.9668L4.03223 19.9658L3.85156 19.7773C3.50963 19.4012 3.27165 19.0189 3.08105 18.5859L2.98926 18.3652C2.79308 17.8607 2.64416 17.2801 2.58008 16.4639L2.55859 16.0986C2.51221 15.0435 2.5 14.7118 2.5 12C2.5 9.28827 2.51221 8.95653 2.55859 7.89746C2.6033 6.88422 2.76442 6.21062 2.98926 5.62891C3.22423 5.03168 3.52857 4.53431 4.03223 4.03418L4.03418 4.03223C4.47238 3.59094 4.90872 3.3035 5.41406 3.08105L5.63477 2.98926C6.21144 2.76505 6.88782 2.60331 7.90137 2.55859L7.90039 2.55762C8.95593 2.51122 9.28776 2.5 12 2.5ZM16.0605 3.35938C14.9995 3.31204 14.674 3.30078 12 3.30078C9.32536 3.30078 9.00021 3.31201 7.93848 3.35938C6.91075 3.40481 6.32582 3.58044 5.9248 3.73633C5.39597 3.94078 5.00497 4.19425 4.60352 4.5957C4.20628 4.99294 3.94875 5.38774 3.74414 5.91699C3.58835 6.31775 3.41264 6.89878 3.36719 7.93066C3.31982 8.9924 3.30859 9.31755 3.30859 11.9922C3.30859 14.6623 3.31986 14.9878 3.36719 16.0527V16.0537C3.41259 17.0807 3.58834 17.6654 3.74414 18.0664V18.0674C3.94859 18.5962 4.20206 18.9872 4.60352 19.3887C5.00067 19.7858 5.39572 20.0425 5.9248 20.2471C6.32558 20.4029 6.90631 20.5795 7.93848 20.625V20.624C9.00021 20.6714 9.32536 20.6836 12 20.6836C14.6708 20.6836 14.996 20.6714 16.0615 20.624V20.625C17.0888 20.5796 17.6732 20.4029 18.0742 20.2471L18.0752 20.248C18.604 20.0436 18.995 19.7901 19.3965 19.3887C19.7938 18.9914 20.0503 18.5958 20.2549 18.0664C20.4106 17.6657 20.5874 17.0852 20.6328 16.0537L20.6318 16.0527C20.6792 14.9916 20.6914 14.6662 20.6914 11.9922C20.6914 9.32141 20.6792 8.99624 20.6318 7.93066H20.6328C20.5874 6.90265 20.4108 6.31802 20.2549 5.91699H20.2559C20.0514 5.38815 19.7979 4.99716 19.3965 4.5957C18.9992 4.19842 18.6036 3.94095 18.0742 3.73633C17.6735 3.58062 17.0927 3.40479 16.0615 3.35938H16.0605Z" fill="currentColor"/>
  <path d="M12 6.86328C9.16406 6.86328 6.86328 9.16406 6.86328 12C6.86328 14.8359 9.16406 17.1367 12 17.1367C14.8359 17.1367 17.1367 14.8359 17.1367 12C17.1367 9.16406 14.8359 6.86328 12 6.86328ZM12 15.332C10.1602 15.332 8.66797 13.8398 8.66797 12C8.66797 10.1602 10.1602 8.66797 12 8.66797C13.8398 8.66797 15.332 10.1602 15.332 12C15.332 13.8398 13.8398 15.332 12 15.332Z" fill="currentColor"/>
  <path d="M18.5391 6.66013C18.5391 7.32419 18 7.85935 17.3398 7.85935C16.6758 7.85935 16.1406 7.32028 16.1406 6.66013C16.1406 5.99606 16.6797 5.46091 17.3398 5.46091C18 5.46091 18.5391 5.99997 18.5391 6.66013Z" fill="currentColor"/>
</svg>
