<svg viewBox="0 0 24 24" xmlns="http://www.w3.org/2000/svg" aria-hidden="true" focusable="false" fill="none">
  <path d="M3 8.66667H21M3 8.66667V18.4447C3 19.6892 3 20.3112 3.24524 20.7865C3.46095 21.2047 3.80491 21.545 4.22827 21.758C4.7091 22 5.33887 22 6.59652 22H17.4035C18.6611 22 19.29 22 19.7708 21.758C20.1942 21.545 20.5393 21.2047 20.755 20.7865C21 20.3116 21 19.6905 21 18.4484V8.66667M3 8.66667V7.778C3 6.53343 3 5.91069 3.24524 5.43533C3.46095 5.01719 3.80491 4.67748 4.22827 4.46443C4.70957 4.22222 5.3401 4.22222 6.60022 4.22222H7.5M21 8.66667V7.77434C21 6.53222 21 5.91022 20.755 5.43533C20.5393 5.01719 20.1942 4.67748 19.7708 4.46443C19.2895 4.22222 18.6603 4.22222 17.4002 4.22222H16.5M16.5 2V4.22222M16.5 4.22222H7.5M7.5 2V4.22222" stroke="currentColor" stroke-width="2" stroke-linecap="round" stroke-linejoin="round"/>
</svg>
