<svg viewBox="0 0 24 24" xmlns="http://www.w3.org/2000/svg" aria-hidden="true" focusable="false" fill="none">
  <path d="M4.5 13C6 9.74996 12.5 6.99998 13.5 8.99998M13.5 8.99998C14.5 11 9.79999 18.6 6.5 21.5H8.5M13.5 8.99998C14 10.75 18.5 12 20 11M11 8.5C8 14 10.2502 13.8436 12.0001 14.5C13.7499 15.1564 15.5 17.5 15.5 21.5H17.5M15 3.99996C15 5.10453 14.1045 5.99998 13 6C11.8954 6.00002 11 5.10461 11 4.00004C11 2.89547 11.8955 2.00002 13 2C14.1046 1.99998 15 2.89539 15 3.99996Z" stroke="currentColor" stroke-width="1.5" stroke-linecap="round" stroke-linejoin="round"/>
</svg>
