<svg viewBox="0 0 24 24" xmlns="http://www.w3.org/2000/svg" aria-hidden="true" focusable="false" fill="none">
  <path d="M19 12.5C17.067 12.5 15.5 14.067 15.5 16C15.5 17.933 17.067 19.5 19 19.5C20.933 19.5 22.5 17.933 22.5 16C22.5 14.067 20.933 12.5 19 12.5ZM19 12.5C16.5 12.5 12.9868 10.1233 12.6332 7.64844C8.99999 9 6.49999 10.5 9.49997 12C12.4999 13.5 14 14 10.5 18.5M13.5 10C12 10.5 11.0002 11 10 12M19 6.5C19 7.60457 18.1046 8.5 17 8.5C15.8954 8.5 15 7.60457 15 6.5C15 5.39543 15.8954 4.5 17 4.5C18.1046 4.5 19 5.39543 19 6.5ZM8.5 16C8.5 17.933 6.933 19.5 5 19.5C3.067 19.5 1.5 17.933 1.5 16C1.5 14.067 3.067 12.5 5 12.5C6.933 12.5 8.5 14.067 8.5 16Z" stroke="currentColor" stroke-width="1.5" stroke-linecap="round" stroke-linejoin="round"/>
</svg>
