<svg viewBox="0 0 24 24" xmlns="http://www.w3.org/2000/svg" aria-hidden="true" focusable="false" fill="none">
  <path d="M8.51237 8.42331C8.72112 7.78006 9.10352 7.20762 9.61762 6.76826C10.1317 6.3289 10.758 6.04018 11.4259 5.93421C12.0938 5.82824 12.7776 5.90893 13.4025 6.16759C14.0273 6.42625 14.5684 6.85291 14.966 7.39996C15.3636 7.947 15.6017 8.59313 15.6549 9.26731C15.708 9.94149 15.5736 10.6174 15.2666 11.22C14.9597 11.8226 14.4926 12.3282 13.916 12.6815C13.3394 13.0349 12.6763 13.2219 12 13.2219V14.4447" stroke="currentColor" stroke-width="2" stroke-linecap="round" stroke-linejoin="round"/>
  <path d="M12 23C5.92487 23 1 18.0751 1 12C1 5.92487 5.92487 1 12 1C18.0751 1 23 5.92487 23 12C23 18.0751 18.0751 23 12 23ZM12.0609 18.1111V18.2333L11.9391 18.2336V18.1111H12.0609Z" stroke="currentColor" stroke-width="2" stroke-linecap="round" stroke-linejoin="round"/>
</svg>
