<svg viewBox="0 0 24 24" xmlns="http://www.w3.org/2000/svg" aria-hidden="true" focusable="false">
  <path d="M1 23L2.54641 17.3506C1.59217 15.6969 1.09075 13.8223 1.09167 11.9001C1.09442 5.89042 5.98482 1 11.9936 1C14.9095 1.00092 17.6466 2.13667 19.7055 4.19733C21.7634 6.258 22.8964 8.997 22.8955 11.9102C22.8927 17.9208 18.0023 22.8112 11.9936 22.8112C10.1694 22.8103 8.37182 22.3528 6.77957 21.4838L1 23Z" fill="currentColor"/>
  <path d="M7.04724 19.5103C8.58357 20.4223 10.0502 20.9687 11.9899 20.9696C16.9839 20.9696 21.052 16.9051 21.0548 11.9083C21.0566 6.9015 17.0077 2.8425 11.9972 2.84067C6.99957 2.84067 2.93416 6.90517 2.93233 11.901C2.93141 13.9406 3.52908 15.4677 4.53283 17.0655L3.61708 20.4095L7.04724 19.5103Z" fill="currentColor"/>
  <path d="M17.4853 14.5016C17.4175 14.3879 17.236 14.3201 16.9628 14.1835C16.6905 14.0469 15.3513 13.3878 15.1011 13.2971C14.8517 13.2063 14.6702 13.1605 14.4878 13.4337C14.3063 13.7059 13.7838 14.3201 13.6252 14.5016C13.4666 14.6831 13.3071 14.706 13.0349 14.5694C12.7626 14.4328 11.8845 14.1459 10.8441 13.2173C10.0346 12.495 9.4874 11.6031 9.32881 11.3299C9.17023 11.0577 9.31231 10.9101 9.44798 10.7744C9.57081 10.6525 9.72023 10.4563 9.85681 10.2968C9.99523 10.1392 10.0401 10.0255 10.1318 9.84308C10.2226 9.66158 10.1776 9.50208 10.1089 9.3655C10.0401 9.22983 9.49565 7.88875 9.26923 7.34333C9.0474 6.81258 8.82282 6.88408 8.65598 6.87583L8.13348 6.86667C7.95198 6.86667 7.65682 6.9345 7.40749 7.20767C7.15815 7.48083 6.45415 8.139 6.45415 9.48008C6.45415 10.8212 7.4304 12.1164 7.56607 12.2979C7.70265 12.4794 9.48648 15.2313 12.2191 16.411C12.869 16.6915 13.3768 16.8593 13.7719 16.9848C14.4246 17.192 15.0186 17.1627 15.4879 17.093C16.0113 17.0151 17.0994 16.4339 17.3267 15.7978C17.554 15.1607 17.554 14.6153 17.4853 14.5016Z" fill="currentColor"/>
</svg>
