<svg viewBox="0 0 24 24" xmlns="http://www.w3.org/2000/svg" aria-hidden="true" focusable="false" fill="none">
  <path d="M2.16113 10.6429C1.84788 10.3532 2.01804 9.82955 2.44174 9.77931L8.44531 9.06722C8.61799 9.04674 8.76799 8.93831 8.84082 8.7804L11.373 3.29061C11.5518 2.90318 12.1025 2.9031 12.2812 3.29054L14.8135 8.78029C14.8863 8.93819 15.0353 9.04692 15.208 9.0674L21.2119 9.77931C21.6356 9.82955 21.8053 10.3534 21.492 10.6431L17.0539 14.7481C16.9263 14.8661 16.8694 15.0419 16.9033 15.2124L18.0812 21.1421C18.1643 21.5606 17.719 21.8848 17.3467 21.6764L12.0713 18.7228C11.9196 18.6378 11.7352 18.6382 11.5835 18.7232L6.30761 21.6757C5.9353 21.8841 5.48911 21.5606 5.57227 21.1421L6.75032 15.2128C6.7842 15.0422 6.72751 14.8661 6.59984 14.748L2.16113 10.6429Z" stroke="currentColor" stroke-width="2" stroke-linecap="round" stroke-linejoin="round"/>
</svg>
